HIERARCHY
ROOT root
{
	OFFSET	0	13.1	24.9
	CHANNELS 6  Xposition Yposition Zposition Xrotation Yrotation Zrotation
	JOINT spine_1
	{
		OFFSET	0	9.99999	0
		CHANNELS 3  Xrotation Yrotation Zrotation
		JOINT spine_2
		{
			OFFSET	0	112	-10
			CHANNELS 3  Xrotation Yrotation Zrotation
			JOINT spine_3
			{
				OFFSET	0	206.5	19.3
				CHANNELS 3  Xrotation Yrotation Zrotation
				JOINT spine_4
				{
					OFFSET	0	110.4	14.6
					CHANNELS 3  Xrotation Yrotation Zrotation
					JOINT neck_1
					{
						OFFSET	0	71.8	-50.3
						CHANNELS 3  Xrotation Yrotation Zrotation
						JOINT neck_2
						{
							OFFSET	0	86.2	-25.8
							CHANNELS 3  Xrotation Yrotation Zrotation
							JOINT head_ee
							{
								OFFSET	0	179.8	-8.7
								CHANNELS 3  Xrotation Yrotation Zrotation
								End Site
								{
									OFFSET	1	0	0
								}
							}
						}
					}
					JOINT left_clavicle
					{
						OFFSET	-43.2	22.4	-70.8
						CHANNELS 3  Xrotation Yrotation Zrotation
						JOINT left_shoulder
						{
							OFFSET	-93.9	-5.79999	48.7
							CHANNELS 3  Xrotation Yrotation Zrotation
							JOINT left_elbow
							{
								OFFSET	-291.4	-30.8	15.2
								CHANNELS 3  Xrotation Yrotation Zrotation
								JOINT left_lowarm_twist
								{
									OFFSET	-110.7	-3.89999	13.6
									CHANNELS 3  Xrotation Yrotation Zrotation
									JOINT left_hand
									{
										OFFSET	-110.7	-3.89999	13.6
										CHANNELS 3  Xrotation Yrotation Zrotation
										JOINT left_ee
										{
											OFFSET	-80.8	-5.10001	12.1
											CHANNELS 3  Xrotation Yrotation Zrotation
											End Site
											{
												OFFSET	1	0	0
											}
										}
									}
								}
							}
						}
					}
					JOINT right_clavicle
					{
						OFFSET	43.2	22.4	-70.8
						CHANNELS 3  Xrotation Yrotation Zrotation
						JOINT right_shoulder
						{
							OFFSET	93.9	-5.79999	48.7
							CHANNELS 3  Xrotation Yrotation Zrotation
							JOINT right_elbow
							{
								OFFSET	291.4	-30.8	15.2
								CHANNELS 3  Xrotation Yrotation Zrotation
								JOINT right_lowarm_twist
								{
									OFFSET	110.7	-3.89999	13.6
									CHANNELS 3  Xrotation Yrotation Zrotation
									JOINT right_hand
									{
										OFFSET	110.7	-3.89999	13.6
										CHANNELS 3  Xrotation Yrotation Zrotation
										JOINT right_ee
										{
											OFFSET	80.8	-5.10001	12.1
											CHANNELS 3  Xrotation Yrotation Zrotation
											End Site
											{
												OFFSET	1	0	0
											}
										}
									}
								}
							}
						}
					}
				}
			}
		}
	}
	JOINT left_hip
	{
		OFFSET	-82.8	-127.5	0.300001
		CHANNELS 3  Xrotation Yrotation Zrotation
		JOINT left_knee
		{
			OFFSET	-28.2	-396.7	2.2
			CHANNELS 3  Xrotation Yrotation Zrotation
			JOINT left_ankle
			{
				OFFSET	-11.7	-411.3	35.4
				CHANNELS 3  Xrotation Yrotation Zrotation
				JOINT left_toes
				{
					OFFSET	0	-60	-88.6
					CHANNELS 3  Xrotation Yrotation Zrotation
					JOINT left_foot_ee
					{
						OFFSET	-22.5	-16.5	-42.2
						CHANNELS 3  Xrotation Yrotation Zrotation
						End Site
						{
							OFFSET	1	0	0
						}
					}
				}
			}
		}
	}
	JOINT right_hip
	{
		OFFSET	82.8	-127.5	0.300001
		CHANNELS 3  Xrotation Yrotation Zrotation
		JOINT right_knee
		{
			OFFSET	28.2	-396.7	2.2
			CHANNELS 3  Xrotation Yrotation Zrotation
			JOINT right_ankle
			{
				OFFSET	11.7	-411.3	35.4
				CHANNELS 3  Xrotation Yrotation Zrotation
				JOINT right_toes
				{
					OFFSET	0	-60	-88.6
					CHANNELS 3  Xrotation Yrotation Zrotation
					JOINT right_foot_ee
					{
						OFFSET	22.5	-16.5	-42.2
						CHANNELS 3  Xrotation Yrotation Zrotation
						End Site
						{
							OFFSET	1	0	0
						}
					}
				}
			}
		}
	}
}
MOTION
Frames: 5
Frame Time: 0.02
865.126 737.16 -1461.93 35.0981 81.9498 -37.1475 -0.638646 0.536599 3.21264 -0.632965 0.331194 3.24023 -0.61015 -0.391915 3.23346 -0.624718 0.123388 3.25476 -12.8506 16.2018 -9.11803 -13.5687 36.4573 -3.58112 -0.0 0.0 -0.0 -7.0106 20.9504 -7.79424 -17.2625 -43.5022 61.1045 0.760995 -20.6551 0.138677 29.9274 0.0685927 -3.77925 0.666399 29.2132 15.103 -0.0 0.0 -0.0 11.5697 0.580781 -22.9829 -5.45858 21.4613 -65.344 1.99226 44.6175 -0.81751 -0.42673 0.0152309 -0.0523687 5.64985 20.1647 -29.9672 0.0 0.0 0.0 11.6655 10.8533 -10.339 -30.3336 0.0311428 4.60101 24.091 7.54334 -3.22498 -40.1702 0.0 0.0 -0.0 0.0 -0.0 1.18902 16.7237 -7.85219 3.51792 0.160772 0.515752 13.7441 -5.3517 1.92848 -40.0956 0.0 0.0 0.0 0.0 0.0 
856.263 739.355 -1463.74 29.3147 82.1429 -31.4017 -0.519327 0.627119 3.21576 -0.513674 0.421332 3.2491 -0.485725 -0.298721 3.26264 -0.50051 0.220017 3.26888 -12.0234 16.2715 -8.47704 -12.6165 36.2288 -3.25621 -0.0 0.0 -0.0 -7.14916 20.6248 -8.10732 -16.9534 -43.3468 61.519 0.777214 -21.0571 0.144451 30.6102 0.0470926 -3.86381 0.823956 29.2901 16.0084 -0.0 0.0 -0.0 11.5375 0.59351 -22.9151 -5.88286 21.9249 -65.6727 1.92947 43.7008 -0.773764 -0.868651 0.0314153 -0.106482 5.48627 20.5447 -28.5102 0.0 0.0 0.0 11.7354 9.91735 -11.3374 -28.1729 0.109701 4.27873 21.5246 6.25671 -2.91814 -40.1779 0.0 0.0 -0.0 0.0 -0.0 0.987943 16.676 -7.74237 4.47614 0.210036 0.654474 12.5705 -5.9371 1.77117 -40.0153 0.0 0.0 0.0 0.0 0.0 
853.833 740.651 -1461.81 22.9139 82.6477 -24.65 -0.515062 0.46415 3.21352 -0.509354 0.258835 3.23651 -0.490966 -0.455087 3.21481 -0.505382 0.0580666 3.24631 -11.5233 16.348 -8.04263 -12.046 36.1137 -3.00046 -0.0 0.0 -0.0 -7.2125 20.3981 -8.27661 -16.1543 -43.3631 62.1525 0.800578 -21.6323 0.152955 31.2462 0.026158 -3.94235 0.99496 29.4158 17.0071 -0.0 0.0 -0.0 11.4656 0.384251 -22.7475 -6.20489 22.0767 -65.5368 1.87154 42.8295 -0.734059 -0.772512 0.0278588 -0.0947206 5.30149 20.4738 -27.1981 0.0 0.0 0.0 12.7128 9.41285 -11.6692 -25.436 0.19165 3.86674 18.9889 2.16732 -2.61466 -40.1757 0.0 0.0 -0.0 0.0 -0.0 2.22002 15.9395 -8.47776 5.15764 0.246486 0.752636 12.3998 -6.65749 1.7477 -39.9592 0.0 0.0 0.0 0.0 0.0 
853.078 737.519 -1465.8 16.8977 82.8106 -18.5023 -0.331287 0.388029 3.15534 -0.325768 0.186563 3.17361 -0.312189 -0.502141 3.13922 -0.325939 -0.000318924 3.17909 -10.729 16.398 -7.85687 -11.1201 36.1035 -3.10895 -0.0 0.0 -0.0 -7.27036 19.6248 -8.6156 -16.0454 -43.3232 61.8092 0.808077 -21.816 0.155731 31.6546 0.0122583 -3.99265 1.07958 29.3912 17.4787 -0.0 0.0 -0.0 11.4665 -0.434572 -22.6905 -5.89976 22.2728 -66.339 1.85198 42.5296 -0.720799 -0.89039 0.0322221 -0.109141 5.2051 20.6134 -26.4108 0.0 0.0 0.0 12.923 8.71603 -11.7134 -23.8891 0.229232 3.63232 16.979 -2.91905 -2.38776 -40.1628 0.0 0.0 -0.0 0.0 -0.0 3.15136 15.1629 -8.74864 5.5064 0.265592 0.802705 12.3617 -7.36907 1.7423 -39.9491 0.0 0.0 0.0 0.0 0.0 
851.464 736.325 -1462.72 13.6288 83.3806 -14.7249 -0.240036 0.294411 3.00987 -0.235002 0.102378 3.02248 -0.226889 -0.547391 2.97431 -0.239226 -0.0710082 3.02338 -10.6164 16.1996 -7.62211 -10.9806 35.5787 -2.98354 -0.0 0.0 -0.0 -6.93386 19.1379 -8.24829 -14.9324 -43.5005 61.9432 0.809848 -21.8593 0.156389 31.9639 0.00149005 -4.03068 1.17663 29.4467 18.0445 -0.0 0.0 -0.0 11.3405 0.336113 -22.4786 -6.51493 22.2147 -66.5696 1.81616 41.9729 -0.696715 -0.914503 0.0331183 -0.11209 5.09397 20.3929 -25.74 0.0 0.0 0.0 13.3446 8.13038 -11.9602 -22.2134 0.26278 3.37739 14.1825 -6.52922 -2.04676 -40.1063 0.0 0.0 -0.0 0.0 -0.0 3.84536 15.0217 -9.14795 5.34574 0.256752 0.779654 13.0607 -7.46034 1.83597 -39.8724 0.0 0.0 0.0 0.0 0.0 
